<?xml version="1.0" encoding="utf-8"?>
<!-- Generator: Adobe Illustrator 25.4.1, SVG Export Plug-In . SVG Version: 6.00 Build 0)  -->
<svg version="1.1" id="Layer_1" xmlns="http://www.w3.org/2000/svg" xmlns:xlink="http://www.w3.org/1999/xlink" x="0px" y="0px"
	 viewBox="0 0 348 104" style="enable-background:new 0 0 348 104;" xml:space="preserve">
<style type="text/css">
	.st0{display:none;}
	.st1{display:inline;fill:#B42322;}
	.st2{display:inline;opacity:0.54;}
	.st3{clip-path:url(#SVGID_00000034791006153094160960000014769687288408084407_);}
	.st4{clip-path:url(#SVGID_00000135678564605681799970000012592666557515045525_);}
	.st5{clip-path:url(#SVGID_00000106833230036003904560000002447013285029927603_);}
	.st6{display:inline;opacity:0.9;}
	.st7{clip-path:url(#SVGID_00000090272779811299272640000018149819161220310147_);}
	.st8{fill-rule:evenodd;clip-rule:evenodd;fill:url(#SVGID_00000083811818772449380530000008759674037597887624_);}
	.st9{fill:#DEB469;}
	.st10{fill:#840C70;}
	.st11{fill:#353535;}
	.st12{fill:none;stroke:#000000;stroke-width:0.75;stroke-miterlimit:10;}
</style>
<g>
	<g>
		<g>
			<g>
				<path class="st9" d="M42,95.2L42,95.2L42,95.2c-4.1,0-8-0.8-11.6-2.6c-6.1-2.9-12.5-8.6-15.7-12.1c3.2-0.8,2.4-3.6,2.4-3.6
					s2.5,0.3,3.9-2.6c3.2,4.7,9,9.2,15,11.7c2,0.8,3.9,1.2,6,1.2l0,0l0,0l0,0l0,0c2,0,3.9-0.5,6-1.2c6.1-2.5,11.8-7,15-11.7
					c1.5,2.9,3.9,2.6,3.9,2.6s-0.8,2.8,2.4,3.6c-3.2,3.4-9.6,9.1-15.7,12.1C50,94.3,46.1,95.2,42,95.2L42,95.2L42,95.2"/>
			</g>
		</g>
		<g>
			<g>
				<path class="st10" d="M26.3,85.3c0.1,0,0.2,0,0.3,0c0.2,0,0.3-0.1,0.5-0.2c0.1-0.1,0.1-0.2,0.1-0.5c0-0.1-0.1-0.3-0.2-0.5
					c-0.1-0.1-0.2-0.3-0.5-0.5l-1.1-0.9l-1.8,2.4l1.2,1c0.3,0.2,0.7,0.5,0.9,0.5h0.1c0.2,0,0.5-0.1,0.6-0.3
					C26.7,86,26.7,85.8,26.3,85.3 M26.2,84c0.1,0.1,0.2,0.2,0.3,0.3c0,0.1,0,0.2,0,0.3c-0.1,0.1-0.2,0.2-0.3,0.2
					c-0.1,0-0.3-0.1-0.5-0.2l-0.5-0.3l0.6-0.7L26.2,84z M25.8,85.9c-0.1,0.1-0.2,0.2-0.3,0.2c-0.1,0-0.2,0-0.3-0.1l-0.7-0.5l0.6-0.8
					l0.5,0.3c0.2,0.1,0.3,0.3,0.5,0.5C25.9,85.5,25.9,85.7,25.8,85.9"/>
			</g>
		</g>
		<g>
			<g>
				
					<rect x="26.1" y="86" transform="matrix(0.5833 -0.8123 0.8123 0.5833 -58.6792 58.4322)" class="st10" width="3" height="0.8"/>
			</g>
		</g>
		<g>
			<g>
				<path class="st10" d="M31.3,88.1c0.2-0.2,0.2-0.6,0.1-0.8c-0.1-0.2-0.3-0.5-0.8-0.7l-1.1-0.8l-1.7,2.5l0.7,0.5l0.7-1l0.5,0.3
					c0,0.1,0.1,0.1,0.1,0.2c0,0.1,0,0.2-0.1,0.5c0,0.1-0.1,0.2-0.1,0.3c0,0.1,0,0.2,0,0.2l0,0l0.7,0.5l0.1-0.1h-0.1c0,0,0,0,0-0.1
					c0-0.1,0-0.2,0.1-0.5c0-0.2,0-0.3,0-0.5s0-0.1,0-0.2C30.7,88.6,31.1,88.5,31.3,88.1 M30.4,86.9c0.1,0.1,0.2,0.2,0.3,0.3
					c0,0.1,0,0.2-0.1,0.5c-0.1,0.2-0.2,0.2-0.3,0.3c-0.1,0-0.2,0-0.5-0.1l-0.5-0.3l0.6-0.9L30.4,86.9z"/>
			</g>
		</g>
		<g>
			<g>
				<polygon class="st10" points="32.9,87.9 32.1,87.6 30.9,90.3 33.1,91.4 33.3,91.1 31.8,90.3 				"/>
			</g>
		</g>
		<g>
			<g>
				<path class="st10" d="M35.9,89l-2.4,2.5l0.6,0.2l0.6-0.6l1.4,0.3l0.1,0.8l0.8,0.2l-0.6-3.4L35.9,89z M35.9,91.1L35,90.8l0.8-0.9
					L35.9,91.1z"/>
			</g>
		</g>
		<g>
			<g>
				<polygon class="st10" points="39.2,92.9 41.9,93.1 42,92.8 40.1,92.5 40.1,91.5 41.8,91.6 41.9,91.3 40.1,91.2 40.2,90.3 
					42.1,90.5 42.1,90 39.4,89.9 				"/>
			</g>
		</g>
		<g>
			<g>
				<path class="st10" d="M44.8,91.2c-0.2,0-0.5-0.1-0.8-0.1c-0.2,0-0.3-0.1-0.5-0.1s-0.2-0.1-0.2-0.1v-0.1c0-0.1,0-0.2,0.1-0.2
					c0.1-0.1,0.2-0.1,0.5-0.1c0.2,0,0.5,0,0.6,0.1c0.1,0.1,0.2,0.2,0.2,0.3l0,0l0.7-0.1v-0.1c0-0.2-0.2-0.5-0.5-0.6
					c-0.2-0.1-0.6-0.2-1-0.1c-0.5,0-0.8,0.1-1,0.3c-0.2,0.1-0.3,0.3-0.3,0.7c0,0.2,0.2,0.5,0.5,0.6c0.2,0.1,0.6,0.2,0.9,0.2
					c0.2,0,0.3,0,0.6,0.1c0.1,0,0.2,0.1,0.2,0.1s0.1,0.1,0.1,0.2c0,0.1,0,0.2-0.1,0.3c-0.1,0.1-0.2,0.1-0.5,0.1s-0.5,0-0.7-0.1
					c-0.1-0.1-0.2-0.2-0.2-0.5V92l-0.7,0.1v0.1c0,0.3,0.2,0.6,0.6,0.7c0.2,0.1,0.5,0.2,0.8,0.2c0.1,0,0.2,0,0.2,0
					c0.2,0,0.6-0.1,0.7-0.2c0.2-0.1,0.3-0.2,0.5-0.3c0.1-0.1,0.1-0.3,0.1-0.6c0-0.2-0.1-0.5-0.2-0.6C45.2,91.3,45.1,91.2,44.8,91.2"
					/>
			</g>
		</g>
		<g>
			<g>
				<polygon class="st10" points="48.7,89 45.6,89.7 45.6,89.7 45.7,90.2 46.9,89.8 47.4,92.4 48.2,92.2 47.7,89.6 48.8,89.4 				
					"/>
			</g>
		</g>
		<g>
			<g>
				<path class="st10" d="M50.1,88.2l-0.5,0.2l-0.2,3.4l0.6-0.2v-0.8l1.2-0.6l0.6,0.6l0.8-0.3L50.1,88.2L50.1,88.2z M51,90l-0.9,0.3
					l0.1-1.2L51,90z"/>
			</g>
		</g>
		<g>
			<g>
				<polygon class="st10" points="54.1,86.7 53.9,86.3 51.1,87.9 51.4,88.2 52.4,87.7 53.7,89.9 54.4,89.6 53.1,87.2 				"/>
			</g>
		</g>
		<g>
			<g>
				<polygon class="st10" points="56.3,87.8 55.7,87 57.1,86 56.9,85.7 55.4,86.7 55,86 56.6,84.9 56.3,84.5 54.1,86.1 55.9,88.6 
					58.1,87 57.9,86.7 				"/>
			</g>
		</g>
		<g>
			<g>
				<path class="st10" d="M60.3,84.2c-0.1-0.2-0.3-0.3-0.5-0.3c-0.2,0-0.3,0-0.6,0c-0.2,0-0.5,0.1-0.7,0.3c-0.2,0.1-0.3,0.1-0.5,0.2
					c-0.1,0-0.2,0-0.2,0s-0.1,0-0.1-0.1c-0.1-0.1-0.1-0.1,0-0.2c0-0.1,0.1-0.2,0.3-0.3c0.2-0.1,0.3-0.2,0.5-0.2s0.3,0,0.5,0.1l0,0
					l0.6-0.5l0,0c-0.2-0.2-0.5-0.3-0.7-0.2c-0.2,0-0.6,0.2-0.9,0.5c-0.3,0.2-0.6,0.6-0.7,0.8c-0.1,0.2-0.1,0.5,0.1,0.7
					c0.2,0.2,0.5,0.3,0.7,0.2c0.2,0,0.6-0.1,0.9-0.3c0.2-0.1,0.3-0.1,0.5-0.2c0.1,0,0.2,0,0.2,0c0.1,0,0.1,0.1,0.1,0.1
					c0.1,0.1,0.1,0.2,0.1,0.3c0,0.1-0.1,0.2-0.3,0.3c-0.2,0.2-0.5,0.2-0.6,0.2c-0.1,0-0.3-0.1-0.5-0.2l0,0l-0.8,0.6l0,0
					c0.2,0.2,0.5,0.3,0.7,0.3h0.1c0.3,0,0.7-0.2,1-0.5c0.2-0.2,0.5-0.3,0.6-0.6c0.1-0.2,0.2-0.3,0.2-0.6
					C60.4,84.5,60.4,84.4,60.3,84.2"/>
			</g>
		</g>
		<g>
			<g>
				<path class="st9" d="M16.8,30c0.1,1.2-0.9,2.3-2.1,2.4c-1.2,0-2.3-0.9-2.4-2.1c0-1.2,0.9-2.3,2.1-2.4
					C15.6,27.7,16.8,28.7,16.8,30"/>
			</g>
		</g>
		<g>
			<g>
				<path class="st10" d="M64.2,55.1c0,21-22.2,28.2-22.2,28.2s-22.2-7.2-22.2-28.2v-16c0,0,6.4-3.8,22.2-7.1
					c15.8,3.3,22.2,7.1,22.2,7.1V55.1z"/>
			</g>
		</g>
		<g>
			<g>
				<path class="st9" d="M45.6,54.1L45.6,54.1C45.5,54.1,45.5,54.1,45.6,54.1C45.5,54.1,45.5,54.1,45.6,54.1L45.6,54.1
					C45.5,54.1,45.5,54.1,45.6,54.1C45.5,54,45.5,54,45.6,54.1L45.6,54.1L45.6,54.1L45.6,54.1L45.6,54.1c4.3-0.9,7.6-4.7,7.6-9.5
					c0-5.3-4.1-9.6-9-9.6c-4.8,0-8.7,3.5-9,8.9c0,0.1,0,0.5,0,0.5v0.1v0.3v0.7v15.8c0.1,1.9-1,3.6-1.6,3.9v-1.5v-2.7v-4.7V45.1
					c0-0.2,0-0.5,0-0.7v-0.2v-0.1c0,0,0-0.3,0-0.5c0.1-2.1,0.8-4.1,1.8-5.5c-7.4,1.7-7.3,8.5-7.3,8.5v0.2v9.5v7.4v4.4v1.5
					c0.5,0,0.9-0.1,1.4-0.2c2.3-0.3,4.3-1.8,5.1-2.6c2.3-2.1,2.1-5.3,2.1-5.3v-0.3v-0.3l0,0V45l0,0l0,0c0,0-0.2-5.2,3.4-7.2
					c0.6-0.3,1.2-0.6,2-0.7c0.1,0,1.1-0.1,2.1,0.2c0.6,0.2,1.1,0.6,1.6,1c1.5,1.4,2.4,3.8,2.4,6.5c0,4.4-2.5,8.1-5.5,8.2h-2.7h-1.6
					c0,0.8,0.7,1.5,1.6,1.6H42c3.5,0,6.5,1.8,7.7,4.4l0,0c0.6,1.2,0.9,2.6,0.9,3.9c0,4.4-3,8.1-7.1,9.2c-0.1,0-0.3,0.1-0.5,0.1
					l-2.9-2.7l0,0c-0.8-0.8-1.8-1.2-2.9-1.2c-2.3,0-3.9,1.8-4.1,4.1c0,0,0.9,0.2,1.2-0.1c0.2-0.2,0.3-0.5,0.5-0.8
					c0.3-1,1.4-1.7,2.4-1.7c0.7,0,1.4,0.3,1.8,0.8l0,0l2.3,2.4l2.3,2.4l0,0l0.1,0.1c0.7,0,1.2,0,1.6,0h0.1c6-0.1,10.8-4.8,10.8-10.7
					C56.1,59,51.5,54.3,45.6,54.1"/>
			</g>
		</g>
		<g>
			<g>
				<path class="st9" d="M38.1,16.3c-0.6-1.9-2-2.7-2.8-3c-0.3-0.1-1.2-0.5-1.9-0.3c-1.2,0.1-2.1,0.8-2.6,1.5
					c-0.1,0.1-0.2,0.3-0.2,0.5l0,0c0,0,0,0,0,0.1c0,0.1-0.1,0.2-0.1,0.3l0,0c0,0.1,0,0.1,0,0.2l0,0c-0.1,1,0.6,2,1.6,2.3
					c1.1,0.2,2.3-0.5,2.5-1.6c0.2-0.8-0.1-1.6-0.8-2.1c1.6,0.3,2.7,1.7,2.7,3.4c0,1.5-0.8,2.7-2,3.2c-2.7,1.6-5.7-0.9-5.7-0.9
					c-7.1-4.7-10.4,0.7-10.4,0.7c-1.8,3-0.8,5.4,0.1,6.8c0.5,0.8,1,1,1,1c0.2,0.2,0.6,0.3,1,0.3c0.9,0,1.7-0.8,1.7-1.7
					s-0.8-1.7-1.7-1.7c-0.6,0-1,0.2-1.4,0.6c-0.5-0.7-0.3-1.8-0.1-2.4c0.5-1.4,1.6-1.9,2.6-2.1c2.1-0.5,3,0.8,3,0.8
					c-3,0.9-1.7,3.7-1.7,3.7c0.5-2.1,4.4-1.2,5.2-0.9C33.8,26.8,39.8,22.5,38.1,16.3"/>
			</g>
		</g>
		<g>
			<g>
				<path class="st9" d="M38.1,16.3c-0.6-1.9-2-2.7-2.8-3c-0.3-0.1-1.2-0.5-1.9-0.3c-1.2,0.1-2.1,0.8-2.6,1.5
					c-0.1,0.1-0.2,0.3-0.2,0.5l0,0c0,0,0,0,0,0.1c0,0.1-0.1,0.2-0.1,0.3l0,0c0,0.1,0,0.1,0,0.2l0,0c-0.1,1,0.6,2,1.6,2.3
					c1.1,0.2,2.3-0.5,2.5-1.6c0.2-0.8-0.1-1.6-0.8-2.1c1,0.2,1.8,0.8,2.3,1.7c0,0.1,0.1,0.1,0.1,0.2c0,0,0,0,0,0.1
					c1.8,3.9-2,8.5-7.6,6.5c-0.8-0.3-2.6-0.9-3.8-0.6c-3,0.9-1.7,3.7-1.7,3.7c0.5-2.1,4.4-1.2,5.2-0.9
					C33.8,26.8,39.8,22.5,38.1,16.3"/>
			</g>
		</g>
		<g>
			<g>
				<path class="st9" d="M46.1,16.3c0.6-1.9,2-2.7,2.8-3c0.3-0.1,1.2-0.5,1.9-0.3c1.2,0.1,2.1,0.8,2.6,1.5c0.1,0.1,0.2,0.3,0.2,0.5
					l0,0c0,0,0,0,0,0.1c0,0.1,0.1,0.2,0.1,0.3l0,0c0,0.1,0,0.1,0,0.2l0,0c0.1,1-0.6,2-1.6,2.3c-1.1,0.2-2.3-0.5-2.5-1.6
					c-0.2-0.8,0.1-1.6,0.8-2.1c-1.6,0.3-2.7,1.7-2.7,3.4c0,1.5,0.8,2.7,2,3.2c2.7,1.6,5.9-0.9,5.9-0.9C62.8,15,66,20.4,66,20.4
					c1.8,3,0.8,5.4-0.1,6.8c-0.5,0.8-1,1-1,1c-0.2,0.2-0.6,0.3-1,0.3c-0.9,0-1.7-0.8-1.7-1.7s0.8-1.7,1.7-1.7c0.6,0,1,0.2,1.2,0.6
					c0.2-0.7,0.1-1.8-0.1-2.4c-0.5-1.4-1.6-1.9-2.6-2.1c-2.1-0.5-3,0.8-3,0.8c3,0.9,1.7,3.7,1.7,3.7c-0.5-2.1-4.4-1.2-5.2-0.9
					C50.4,26.8,44.3,22.5,46.1,16.3"/>
			</g>
		</g>
		<g>
			<g>
				<path class="st9" d="M46.1,16.3c0.6-1.9,2-2.7,2.8-3c0.3-0.1,1.2-0.5,1.9-0.3c1.2,0.1,2.1,0.8,2.6,1.5c0.1,0.1,0.2,0.3,0.2,0.5
					l0,0c0,0,0,0,0,0.1c0,0.1,0.1,0.2,0.1,0.3l0,0c0,0.1,0,0.1,0,0.2l0,0c0.1,1-0.6,2-1.6,2.3c-1.1,0.2-2.3-0.5-2.5-1.6
					c-0.2-0.8,0.1-1.6,0.8-2.1c-1,0.2-1.8,0.8-2.3,1.7c0,0.1-0.1,0.1-0.1,0.2c0,0,0,0,0,0.1c-1.8,3.9,2,8.5,7.6,6.5
					c0.8-0.3,2.6-0.9,3.8-0.6c3,0.9,1.7,3.7,1.7,3.7c-0.5-2.1-4.4-1.2-5.2-0.9C50.4,26.8,44.3,22.5,46.1,16.3"/>
			</g>
		</g>
		<g>
			<g>
				<path class="st9" d="M67.2,30c-0.1,1.2,0.9,2.3,2.1,2.4c1.2,0,2.3-0.9,2.4-2.1s-0.9-2.3-2.1-2.4C68.2,27.7,67.2,28.7,67.2,30"/>
			</g>
		</g>
		<g>
			<g>
				<path class="st9" d="M69.4,27.8c0.2,0,0.5,0.1,0.7,0.1c0,0.1,0,0.3,0,0.5c-0.1,1.2-1.1,2.3-2.4,2.1c-0.2,0-0.5-0.1-0.7-0.1
					c0-0.1,0-0.3,0-0.5C67.2,28.7,68.2,27.7,69.4,27.8"/>
			</g>
		</g>
		<g>
			<g>
				<path class="st9" d="M14.4,27.8c-0.2,0-0.5,0.1-0.7,0.1c0,0.1,0,0.3,0,0.5c0.1,1.2,1.1,2.3,2.4,2.1c0.2,0,0.5-0.1,0.7-0.1
					c0-0.1,0-0.3,0-0.5C16.8,28.7,15.6,27.7,14.4,27.8"/>
			</g>
		</g>
		<g>
			<g>
				<path class="st9" d="M42.4,24.9L42,24.8l-0.3,0.1C25.9,28.2,19.2,32,19,32.2l-0.8,0.5v3.8L19,36c0.2-0.1,6.9-4.1,22.7-7.3
					l0.3-0.1l0.3,0.1C58.1,32,64.8,35.8,65,36l0.8,0.5v-3.8L65,32.2C64.8,32,58.1,28.2,42.4,24.9"/>
			</g>
		</g>
		<g>
			<g>
				<path class="st9" d="M45.2,8.9c-0.1,0-0.1-0.1-0.2-0.1c-0.6,0.1-1,0.3-1.4,0.8l0,0l0,0l0,0l0,0l0,0l0,0c0,0,0,0,0-0.1l0,0l0,0
					l0,0l0,0l0,0l0,0l0,0l0,0l0,0l0,0l0,0l0,0l0,0l0,0l0,0l0,0l0,0l0,0l0,0l0,0l0,0l0,0l0,0l0,0l0,0l0,0l0,0l0,0l0,0l0,0l0,0l0,0
					l0,0l0,0l0,0l0,0l0,0l0,0l0,0l0,0l0,0l0,0l0,0l0,0l0,0l0,0l0,0l0,0l0,0l0,0l0,0l0,0l0,0l0,0l0,0l0,0l0,0l0,0l0,0c0,0,0,0-0.1,0
					l0,0l0,0l0,0l0,0l0,0l0,0l0,0l0,0l0,0l0,0l0,0l0,0l0,0l0,0l0,0l0,0l0,0l0,0l0,0l0,0l0,0l0,0l0,0l0,0l0,0l0,0l0,0l0,0l0,0l0,0
					l0,0l0,0l0,0l0,0l0,0l0,0l0,0l0,0l0,0l0,0l0,0l0,0l0,0l0,0l0,0l0,0l0,0l0,0l0,0l0,0l0,0l0,0l0,0c0,0,0,0-0.1,0l0,0l0,0l0,0l0,0
					l0,0l0,0l0,0l0,0l0,0l0,0l0,0l0,0l0,0l0,0l0,0l0,0l0,0l0,0l0,0l0,0l0,0l0,0l0,0l0,0l0,0l0,0l0,0l0,0l0,0l0,0l0,0l0,0l0,0l0,0
					l0,0l0,0l0,0l0,0l0,0l0,0l0,0l0,0l0,0l0,0l0,0l0,0l0,0l0,0l0,0l0,0l0,0l0,0l0,0l0,0l0,0l0,0l0,0l0,0l0,0l0,0c0,0,0,0,0,0.1l0,0
					l0,0l0,0l0,0l0,0l0,0C43,9.1,42.6,8.9,42,8.8c-0.1,0-0.1,0-0.2,0.1c-0.1,0-0.1,0.1-0.1,0.2v0.1c0,0.1,0.1,0.2,0.2,0.2
					c0.7,0.1,1.2,0.7,1.2,1.5V11h-3c-0.1,0-0.2,0.1-0.2,0.2c0,0.1,0.1,0.2,0.2,0.2H42h1.9c0.1,0,0.2-0.1,0.2-0.2
					c0-0.1-0.1-0.2-0.2-0.2h-0.2v-0.1c0-0.8,0.6-1.4,1.2-1.5c0.1,0,0.2-0.1,0.2-0.2V9.1C45.3,9,45.3,8.9,45.2,8.9"/>
			</g>
		</g>
		<g>
			<g>
				<path class="st9" d="M45.3,13.1c0-0.3-0.2-0.6-0.5-0.6l0,0h-0.1h-2.6h-2.6h-0.1l0,0c-0.2,0-0.5,0.3-0.5,0.6c0,0.1,0,0.2,0.1,0.3
					l0,0c0.6,0.7,1.9,1.8,2.8,5.3l0,0c0,0.1,0.1,0.1,0.2,0.1c0.1,0,0.2-0.1,0.2-0.1l0,0c1-3.5,2.3-4.7,2.8-5.3l0,0
					C45.2,13.3,45.3,13.2,45.3,13.1"/>
			</g>
		</g>
		<g>
			<g>
				<path class="st9" d="M65,37.7c-0.2-0.1-6.9-4.1-22.7-7.3L42,30.3l-0.3,0.1c-15.8,3.3-22.4,7.1-22.7,7.3l-0.8,0.5v16.9
					c0,9,4.1,17,11.6,23.1c5.7,4.5,11.4,6.4,11.6,6.5l0.5,0.1l0.5-0.1c0.2-0.1,5.9-1.9,11.6-6.5c7.7-6.1,11.6-14.1,11.6-23.1V38.2
					L65,37.7z M64.2,55.1c0,21-22.2,28.2-22.2,28.2s-22.2-7.2-22.2-28.2v-16c0,0,6.4-3.8,22.2-7.1c15.8,3.3,22.2,7.1,22.2,7.1V55.1z
					"/>
			</g>
		</g>
		<g>
			<g>
				<path class="st9" d="M67.8,61.2c0.3-0.8,0.8-1.4,1.4-2.1c0.2-0.3,1.4-1.6,1.6-1.9c0.3-0.5,0.6-0.9,0.7-1.6
					c-0.2,0.3-0.6,0.7-1,0.8c-0.8,0.2-1.6-0.3-1.7-1.1c-0.2-0.8,0.3-1.6,1.1-1.7c0.1,0,0.2,0,0.3,0l0,0l0,0c1.8-0.1,2.8,1.7,2.9,2.7
					c0.1,1.5-0.2,2.5-0.8,3.4c0,0.1-0.1,0.2-0.1,0.2c-0.5,1.2,0.3,2.3,1.2,2.4c0.5,0.1,0.9,0,1.4-0.2c0,0.6-0.5,1-0.5,1
					c-1.2,1.1-2.9,0.1-2.9,0.1c-0.1,0-0.2-0.1-0.3-0.2c0,0.2,0,0.5,0,0.7c0.1,2.4,2.1,3.8,4.1,2.7c1-0.7,1.2-1.7,1.5-2.6l0,0l0,0
					l0,0c0.1,0.2,0.3,0.8,0.3,1c0.1,0.5,0.1,1.1-0.1,1.6c-0.1,0.6-0.6,1.2-1.1,1.8c-0.1,0.1-0.2,0.2-0.2,0.2
					c-0.5,0.3-1.1,0.7-1.7,0.8c-1.7,0.3-2.9-0.1-3.9-0.6C68.1,67.8,66.5,64.7,67.8,61.2"/>
			</g>
		</g>
		<g>
			<g>
				<path class="st9" d="M69.5,61.4c0.2-0.6,0.6-1.1,1.1-1.7c0.1-0.1,0.3-0.5,0.6-0.7c0.1-0.2,0.6-0.7,0.7-1l0.1-0.2
					c0.1-0.2,0.1-0.3,0.2-0.5c0,0,0-0.1,0.1-0.2c0-0.1,0-0.1,0-0.2s0-0.2,0-0.3v-0.1c0-0.7-0.2-1.9-1.4-2.6c0.2,0.2,0.5,0.5,0.5,0.8
					c0.2,0.8-0.3,1.6-1.1,1.7c-0.8,0.2-1.6-0.3-1.7-1.1c-0.2-0.8,0.3-1.6,1.1-1.7c0.1,0,0.3,0,0.3,0l0,0h0.2
					c1.7,0.1,2.6,1.7,2.7,2.7c0.1,1.5-0.2,2.5-0.8,3.4c0,0.1-0.1,0.2-0.1,0.2c-0.5,1.2,0.3,2.3,1.2,2.4c0.5,0.1,0.9,0,1.4-0.2
					c0,0.6-0.5,1-0.5,1c-1.2,1.1-2.9,0.1-2.9,0.1c-0.1,0-0.2-0.1-0.3-0.2c0,0.2,0,0.5,0,0.7c0.1,2.4,2.1,3.8,4.1,2.7
					c1-0.7,1.2-1.7,1.5-2.6c0,0,0.1,0.3,0.2,0.6h-0.1c0,0.5,0,0.9,0,1.2c-0.1,0.5-0.5,1-0.9,1.5c-0.1,0.1-0.1,0.1-0.2,0.2
					c-0.3,0.3-0.9,0.6-1.4,0.6c-1.4,0.3-2.4,0-3.2-0.5C69.6,66.7,68.5,64.1,69.5,61.4"/>
			</g>
		</g>
		<g>
			<g>
				<path class="st9" d="M66,68.5c-0.2,0.3-0.5,0.7-0.5,1.1c-0.1,1.2,0.7,2.3,1.8,2.4c0.2,0,0.3,0,0.6,0s0.6-0.1,0.9-0.2
					c0.1,0,0.2-0.1,0.3-0.1c0.2-0.1,2.1-1,3.6-0.5c0.3,0.1,0.7,0.2,0.9,0.6c-0.1,0-0.2,0-0.3,0c-1.1-0.1-2.1,0.7-2.3,1.8
					c0,0.5,0,0.8,0.2,1.1c0,0.1,0.1,0.1,0.1,0.2l0,0l0.1,0.1l0,0c0.3,0.5,0.9,1.1,1.1,1.8c0,0.2,0.1,0.5,0,0.7
					c-0.1,1.2-1.1,2.1-2.3,2c-0.2,0-0.6-0.1-0.8-0.2c0,0-0.2-0.1-0.2-0.2l0,0l-0.2-0.2c-0.1-0.2-0.2-0.5-0.2-0.8
					c0-0.6,0.5-1.1,1.1-1.1c-0.1-0.2-0.3-0.3-0.6-0.5c-0.1-0.1-0.2-0.1-0.3-0.2c-0.3-0.1-1.8-0.6-2.1-0.7c-0.2-0.1-0.5-0.2-0.7-0.3
					c-1-0.6-3-2.1-2.1-4.8C64.1,70.3,64.7,68.7,66,68.5"/>
			</g>
		</g>
		<g>
			<g>
				<path class="st9" d="M71.9,71.8c-0.5,0.6-0.5,1.4,0.1,1.8s1.4,0.5,1.8-0.1s0.5-1.4-0.1-1.8C73.1,71.2,72.3,71.3,71.9,71.8"/>
			</g>
		</g>
		<g>
			<g>
				<path class="st9" d="M70.3,75.1c-0.5-0.2-2.4-0.8-3.4-1.4c-1.7-1-3.4-2.7-1-5.2c-0.2,0.3-0.5,0.7-0.5,1.1
					c-0.1,1.2,0.7,2.3,1.8,2.4c0.2,0,0.3,0,0.6,0s0.6-0.1,0.9-0.2c0.1,0,0.2-0.1,0.3-0.1c0.2-0.1,2.1-1,3.6-0.5
					c0.3,0.1,0.7,0.2,0.9,0.6c-0.1,0-0.2,0-0.3,0c-1.1-0.1-2.1,0.7-2.3,1.8c0,0.5,0,0.8,0.2,1.1c0,0.1,0.1,0.1,0.1,0.2l0,0l0.1,0.1
					l0,0c0.3,0.5,0.9,1.1,1.1,1.8c0,0.2,0.1,0.5,0,0.7c0,0.5-0.2,0.9-0.5,1.2C72.6,78.1,73.4,76.4,70.3,75.1"/>
			</g>
		</g>
		<g>
			<g>
				<path class="st9" d="M16.2,61.2c-0.3-0.8-0.8-1.4-1.4-2.1c-0.2-0.3-1.4-1.6-1.6-1.9c-0.3-0.5-0.6-0.9-0.7-1.6
					c0.2,0.3,0.6,0.7,1,0.8c0.8,0.2,1.6-0.3,1.7-1.1c0.2-0.8-0.3-1.6-1.1-1.7c-0.1,0-0.2,0-0.3,0l0,0l0,0c-1.8-0.1-2.8,1.7-2.9,2.7
					c-0.1,1.5,0.2,2.5,0.8,3.4c0,0.1,0.1,0.2,0.1,0.2c0.5,1.2-0.3,2.3-1.2,2.4c-0.5,0.1-0.9,0-1.4-0.2c0,0.6,0.5,1,0.5,1
					c1.2,1.1,2.9,0.1,2.9,0.1c0.1,0,0.2-0.1,0.3-0.2c0,0.2,0,0.5,0,0.7c-0.1,2.4-2.1,3.8-4.1,2.7c-1-0.7-1.2-1.7-1.5-2.6l0,0l0,0
					l0,0c-0.1,0.2-0.3,0.8-0.3,1C7,65.1,7,65.8,7.2,66.3c0.1,0.6,0.6,1.2,1.1,1.8c0.1,0.1,0.2,0.2,0.2,0.2c0.5,0.3,1.1,0.7,1.7,0.8
					c1.7,0.3,2.9-0.1,3.9-0.6C16.1,67.8,17.6,64.7,16.2,61.2"/>
			</g>
		</g>
		<g>
			<g>
				<path class="st9" d="M14.5,61.4c-0.2-0.6-0.6-1.1-1.1-1.7c-0.1-0.1-0.3-0.5-0.6-0.7c-0.1-0.2-0.6-0.7-0.7-1L12,57.8
					c-0.1-0.2-0.1-0.3-0.2-0.5c0,0,0-0.1-0.1-0.2c0-0.1,0-0.1,0-0.2s0-0.2,0-0.3v-0.1c0-0.7,0.2-1.9,1.4-2.6
					c-0.2,0.2-0.5,0.5-0.5,0.8c-0.2,0.8,0.3,1.6,1.1,1.7c0.8,0.2,1.6-0.3,1.7-1.1c0.2-0.8-0.3-1.6-1.1-1.7c-0.1,0-0.3,0-0.3,0l0,0
					h-0.2c-1.7,0.1-2.6,1.7-2.7,2.7c-0.1,1.5,0.2,2.5,0.8,3.4c0,0.1,0.1,0.2,0.1,0.2c0.5,1.2-0.3,2.3-1.2,2.4
					c-0.5,0.1-0.9,0-1.4-0.2c0,0.6,0.5,1,0.5,1c1.2,1.1,2.9,0.1,2.9,0.1c0.1,0,0.2-0.1,0.3-0.2c0,0.2,0,0.5,0,0.7
					c-0.1,2.4-2.1,3.8-4.1,2.7c-1-0.7-1.2-1.7-1.5-2.6c0,0-0.1,0.3-0.2,0.6h0.1c0,0.5,0,0.9,0,1.2c0,0.7,0.3,1.2,0.8,1.6
					c0.1,0.1,0.1,0.1,0.2,0.2c0.2,0.3,0.8,0.6,1.2,0.7c1.4,0.3,2.4,0,3.2-0.5C14.4,66.7,15.6,64.1,14.5,61.4"/>
			</g>
		</g>
		<g>
			<g>
				<path class="st9" d="M18.1,68.5c0.2,0.3,0.5,0.7,0.5,1.1c0.1,1.2-0.7,2.3-1.8,2.4c-0.2,0-0.3,0-0.6,0c-0.2,0-0.6-0.1-0.9-0.2
					c-0.1,0-0.2-0.1-0.3-0.1c-0.2-0.1-2.1-1-3.6-0.5c-0.3,0.1-0.7,0.2-0.9,0.6c0.1,0,0.2,0,0.3,0c1.1-0.1,2.1,0.7,2.3,1.8
					c0,0.5,0,0.8-0.2,1.1c0,0.1-0.1,0.1-0.1,0.2l0,0l-0.1,0.1l0,0c-0.3,0.5-0.9,1.1-1.1,1.8c0,0.2-0.1,0.5,0,0.7
					c0.1,1.2,1.1,2.1,2.3,2c0.2,0,0.6-0.1,0.8-0.2c0,0,0.2-0.1,0.2-0.2l0,0l0.2-0.2c0.1-0.2,0.2-0.5,0.2-0.8c0-0.6-0.5-1.1-1.1-1.1
					c0.1-0.2,0.3-0.3,0.6-0.5c0.1-0.1,0.2-0.1,0.3-0.2c0.3-0.1,1.8-0.6,2.1-0.7c0.2-0.1,0.5-0.2,0.7-0.3c1-0.6,3-2.1,2.1-4.8
					C19.9,70.3,19.5,68.7,18.1,68.5"/>
			</g>
		</g>
		<g>
			<g>
				<path class="st9" d="M12.3,71.8c0.5,0.6,0.5,1.4-0.1,1.8c-0.6,0.5-1.4,0.5-1.8-0.1s-0.5-1.4,0.1-1.8
					C10.9,71.2,11.7,71.3,12.3,71.8"/>
			</g>
		</g>
		<g>
			<g>
				<path class="st9" d="M13.7,75.1c0.5-0.2,2.4-0.8,3.4-1.4c1.7-1,3.4-2.7,1-5.2c0.2,0.3,0.5,0.7,0.5,1.1c0.1,1.2-0.7,2.3-1.8,2.4
					c-0.2,0-0.3,0-0.6,0c-0.2,0-0.6-0.1-0.9-0.2c-0.1,0-0.2-0.1-0.3-0.1c-0.2-0.1-2.1-1-3.6-0.5c-0.3,0.1-0.7,0.2-0.9,0.6
					c0.1,0,0.2,0,0.3,0c1.1-0.1,2.1,0.7,2.3,1.8c0,0.5,0,0.8-0.2,1.1c0,0.1-0.1,0.1-0.1,0.2l0,0l-0.1,0.1l0,0
					c-0.3,0.5-0.9,1.1-1.1,1.8c0,0.2-0.1,0.5,0,0.7c0,0.5,0.2,0.9,0.5,1.2C11.5,78.1,10.7,76.4,13.7,75.1"/>
			</g>
		</g>
	</g>
	<g>
		<g>
			<rect x="84.6" y="74.8" width="253.7" height="0.7"/>
		</g>
		<g>
			<path class="st11" d="M90.6,83.3c-0.3-0.5-1.1-1-2.1-1c-1.2,0-1.8,0.5-1.8,1.2c0,0.8,0.9,1,2,1.1c1.8,0.2,3.6,0.7,3.6,2.8
				c0,2-1.7,2.8-3.7,2.8c-1.8,0-3.2-0.6-3.8-2.2l1.4-0.7c0.4,1,1.4,1.4,2.5,1.4c1,0,2-0.4,2-1.3c0-0.8-0.9-1.2-2-1.3
				c-1.8-0.2-3.5-0.7-3.5-2.7c0-1.8,1.8-2.6,3.4-2.6c1.4,0,2.8,0.4,3.5,1.8L90.6,83.3z"/>
			<path class="st11" d="M103.8,89.9h-6.6c0-2.9,0-5.9,0-8.8h6.6v1.6h-5v2h4.8v1.5h-4.8v2h5V89.9z"/>
			<path class="st11" d="M116.7,88.8c-0.9,0.9-2.1,1.3-3.4,1.3c-3.3,0-4.7-2.3-4.7-4.5c0-2.3,1.5-4.6,4.7-4.6c1.2,0,2.3,0.5,3.2,1.3
				l-1.1,1.1c-0.6-0.6-1.4-0.8-2.1-0.8c-2.1,0-3,1.6-3,3.1c0,1.5,0.9,3,3,3c0.8,0,1.6-0.3,2.2-0.9L116.7,88.8z"/>
			<path class="st11" d="M123.5,82.6h-2.8v-1.5c2.5,0,4.7,0,7.3,0v1.5h-2.8v7.3h-1.7V82.6z"/>
			<path class="st11" d="M141.5,85.6c0,2.3-1.4,4.6-4.5,4.6c-3.1,0-4.5-2.2-4.5-4.5c0-2.3,1.5-4.6,4.5-4.6
				C140,81,141.5,83.3,141.5,85.6z M134,85.6c0,1.4,0.8,3,2.9,3c2.1,0,2.9-1.6,2.9-3c0-1.5-0.8-3.2-2.9-3.2
				C134.9,82.5,134,84.1,134,85.6z"/>
			<path class="st11" d="M154.3,89.9h-2l-2.6-2.9h-1.6v2.9h-1.7v-8.8c1.4,0,2.8,0,4.2,0c2.1,0,3.2,1.4,3.2,2.9
				c0,1.2-0.6,2.4-2.2,2.8l2.7,3V89.9z M148.1,82.7v2.8h2.5c1.1,0,1.5-0.7,1.5-1.4c0-0.7-0.5-1.4-1.5-1.4H148.1z"/>
			<path class="st11" d="M165.4,89.9l3.6-7.2h-4.3v-1.6h6.5l0.1,0.9l-4,7.9H165.4z"/>
			<path class="st11" d="M175.6,88.5h1.3v-5.9h-1.4v-1.5h3v7.4h1.2v1.4h-4.2V88.5z"/>
			<path class="st11" d="M185.6,91.2h-0.9l0.2-1.2c-0.4-0.1-0.6-0.3-0.6-0.7c0-1.2,1.8-1.1,1.8,0C186.2,89.4,186.2,89.4,185.6,91.2z
				"/>
			<path class="st11" d="M204.3,83.3c-0.6-0.6-1.5-0.9-2.2-0.9c-1.9,0-3,1.4-3,3.3c0,1.4,0.8,2.9,3,2.9c0.7,0,1.3-0.2,2-0.7v-1.6
				h-2.3v-1.5h3.8v3.7c-0.9,1-2,1.6-3.5,1.6c-3.3,0-4.7-2.2-4.7-4.5c0-2.5,1.5-4.8,4.7-4.8c1.2,0,2.4,0.5,3.3,1.3L204.3,83.3z"/>
			<path class="st11" d="M218.4,81.1v5.1c0,2.6-1.6,3.9-3.8,3.9c-2.1,0-3.9-1.3-3.9-3.9v-5.1h1.7v5.1c0,1.6,0.9,2.4,2.3,2.4
				c1.4,0,2.2-0.9,2.2-2.4v-5.1H218.4z"/>
			<path class="st11" d="M231.7,89.9h-2l-2.6-2.9h-1.6v2.9h-1.7v-8.8c1.4,0,2.8,0,4.2,0c2.1,0,3.2,1.4,3.2,2.9
				c0,1.2-0.6,2.4-2.2,2.8l2.7,3V89.9z M225.5,82.7v2.8h2.5c1.1,0,1.5-0.7,1.5-1.4c0-0.7-0.5-1.4-1.5-1.4H225.5z"/>
			<path class="st11" d="M244.1,81.1v5.1c0,2.6-1.6,3.9-3.8,3.9c-2.1,0-3.9-1.3-3.9-3.9v-5.1h1.7v5.1c0,1.6,0.9,2.4,2.3,2.4
				c1.4,0,2.2-0.9,2.2-2.4v-5.1H244.1z"/>
			<path class="st11" d="M256.1,83.3c-0.6-0.6-1.5-0.9-2.2-0.9c-1.9,0-3,1.4-3,3.3c0,1.4,0.8,2.9,3,2.9c0.7,0,1.3-0.2,2-0.7v-1.6
				h-2.3v-1.5h3.8v3.7c-0.9,1-2,1.6-3.5,1.6c-3.3,0-4.7-2.2-4.7-4.5c0-2.5,1.5-4.8,4.7-4.8c1.2,0,2.4,0.5,3.3,1.3L256.1,83.3z"/>
			<path class="st11" d="M270.2,89.9h-2l-2.6-2.9h-1.6v2.9h-1.7v-8.8c1.4,0,2.8,0,4.2,0c2.1,0,3.2,1.4,3.2,2.9
				c0,1.2-0.6,2.4-2.2,2.8l2.7,3V89.9z M264.1,82.7v2.8h2.5c1.1,0,1.5-0.7,1.5-1.4c0-0.7-0.5-1.4-1.5-1.4H264.1z"/>
			<path class="st11" d="M280.9,88.3h-4.6l-0.8,1.7h-1.8l4-8.8h1.8l4,8.8h-1.8L280.9,88.3z M278.6,83l-1.6,3.8h3.3L278.6,83z"/>
			<path class="st11" d="M295.6,83.6l-2.9,3.8h-0.3l-2.8-3.8V90h-1.7v-8.8h1.9l2.8,3.8l2.8-3.8h1.9V90h-1.7V83.6z"/>
		</g>
		<g>
			<path class="st10" d="M107.8,19.6c0,2.1-1,4-3.5,5.1c3.1,1,4.3,4.3,4.3,5.9c0,5.9-4.4,7.8-10,7.8c-4.2,0-8.4,0-12.6,0V11.9
				c4.2,0,8.4,0,12.6,0C103.9,11.9,107.8,14.2,107.8,19.6z M90.9,22.5h7.7c3.2,0,4.2-1.3,4.2-2.9c0-1.2-1-3.3-4.2-3.3h-7.7V22.5z
				 M90.9,33.8h7.7c2.1,0,5-0.7,5-3.2c0-2.4-2.9-3.6-5-3.6h-7.7V33.8z"/>
			<path class="st10" d="M119.7,38.5V11.9h5v26.6H119.7z"/>
			<path class="st10" d="M160.6,38.5h-6l-7.8-8.9h-4.8v8.9h-5V11.8c4.2,0,8.4,0,12.7,0c6.3,0,9.6,4.2,9.6,8.8c0,3.6-1.7,7.3-6.7,8.4
				l8.1,9.1V38.5z M142.1,16.5V25h7.6c3.2,0,4.6-2.1,4.6-4.3s-1.4-4.3-4.6-4.3H142.1z"/>
			<path class="st10" d="M175.3,11.9v22H189v4.6h-18.7V11.9H175.3z"/>
			<path class="st10" d="M219,33.4h-13.9l-2.3,5h-5.4l11.9-26.6h5.5l11.9,26.6h-5.5L219,33.4z M212.1,17.4l-4.9,11.3h9.9L212.1,17.4
				z"/>
			<path class="st10" d="M102.6,49.5c-0.9-1.5-3.4-3-6.3-3c-3.7,0-5.5,1.6-5.5,3.5c0,2.3,2.7,3,5.9,3.3c5.5,0.7,10.7,2.1,10.7,8.5
				c0,5.9-5.2,8.5-11.2,8.5c-5.4,0-9.6-1.7-11.6-6.5l4.2-2.2c1.2,2.9,4.3,4.2,7.5,4.2c3.2,0,6.1-1.1,6.1-4c0-2.5-2.6-3.5-6.2-3.9
				c-5.4-0.6-10.5-2.1-10.5-8.1c0-5.5,5.4-7.7,10.3-7.8c4.1,0,8.4,1.2,10.5,5.3L102.6,49.5z"/>
			<path class="st10" d="M138.7,69.7h-19.9c0-8.9,0-17.8,0-26.6h19.9V48h-14.9v6.1h14.4v4.7h-14.4v6h14.9V69.7z"/>
			<path class="st10" d="M173.6,66.4c-2.7,2.7-6.3,4-10.1,4c-9.9,0-14.1-6.8-14.1-13.7c0-7,4.5-14,14.1-14c3.6,0,7,1.4,9.8,4.1
				l-3.3,3.2c-1.7-1.7-4.1-2.5-6.4-2.5c-6.4,0-9.2,4.8-9.2,9.2c0,4.4,2.6,9,9.2,9c2.3,0,4.9-1,6.7-2.7L173.6,66.4z"/>
			<path class="st10" d="M190.6,47.7h-8.4v-4.6c7.7,0,14.2,0,21.9,0v4.6h-8.4v22h-5V47.7z"/>
			<path class="st10" d="M240.8,56.5c-0.1,6.9-4.3,13.8-13.6,13.8c-9.4,0-13.7-6.7-13.7-13.7s4.5-14,13.7-14
				C236.3,42.6,240.9,49.6,240.8,56.5z M218.4,56.7c0.1,4.4,2.5,9,8.7,9c6.3,0,8.6-4.7,8.7-9.1c0.1-4.5-2.4-9.5-8.7-9.5
				C220.9,47.1,218.3,52.2,218.4,56.7z"/>
			<path class="st10" d="M275.7,69.7h-6l-7.8-8.9h-4.8v8.9h-5V43.1c4.2,0,8.4,0,12.7,0c6.3,0,9.6,4.2,9.6,8.8c0,3.6-1.7,7.3-6.7,8.4
				l8.1,9.1V69.7z M257.1,47.8v8.5h7.6c3.2,0,4.6-2.1,4.6-4.3s-1.4-4.3-4.6-4.3H257.1z"/>
			<path class="st10" d="M301.6,69.7l10.9-21.8h-13v-4.8H319l0.3,2.7l-11.9,23.9H301.6z"/>
			<path class="st10" d="M328.3,65.4h4V47.7h-4.1v-4.6h9.1v22.4h3.7v4.3h-12.7V65.4z"/>
		</g>
	</g>
</g>
</svg>
